PathFileType	4	(X/Y/Z)	OpenSim_Sub01_EMGBaseline_Magnet.trc
DataRate	CameraRate	NumFrames	NumMarkers	Units	OrigDataRate	OrigDataStartFrame	OrigNumFrames
100	100	16	8	m	100	5704	7604
Frame#	Time	torso_imu_offset_imu	pelvis_imu_offset_imu	tibia_r_imu_offset_imu	femur_r_imu_offset_imu	tibia_l_imu_offset_imu	femur_l_imu_offset_imu	toes_r_imu_offset_imu	toes_l_imu_offset_imu
				X1	Y1	Z1	X2	Y2	Z2	X3	Y3	Z3	X4	Y4	Z4	X5	Y5	Z5	X6	Y6	Z6	X7	Y7	Z7	X8		Y8	Z8	

5704	57.03000000	-0.92931354	-0.06419953	0.10096342	-0.73432913	0.03749257	-0.59624186	-0.54603478	-0.57890341	0.05095311	-0.65847433	-0.46773091	0.15140132	-0.32911098	0.74189044	0.03361219	-0.54066760	-0.21419057	0.17357613	-0.71233111	-0.10823349	-0.33631735	-0.79564724	-0.02442914	0.00181906
5705	57.04000000	-0.93034719	-0.06314284	0.10183130	-0.73497202	0.03749561	-0.59529330	-0.54102416	-0.58148151	0.05132194	-0.65533695	-0.47468477	0.15259562	-0.36050362	0.72564878	0.02938907	-0.53804751	-0.21538071	0.17172040	-0.71030291	-0.11213803	-0.33927757	-0.79387924	-0.02657639	-0.03857119
5706	57.05000000	-0.93092902	-0.06483260	0.10310891	-0.73135078	0.03693574	-0.59461246	-0.53714342	-0.58601016	0.05081273	-0.65191847	-0.47987551	0.15344958	-0.39163654	0.70821252	0.02836580	-0.53717776	-0.21469925	0.17253241	-0.70930699	-0.11635024	-0.33955362	-0.78963920	-0.02660011	-0.07626814
5707	57.06000000	-0.93092679	-0.06801078	0.10435629	-0.72503525	0.03600395	-0.59441217	-0.53440195	-0.59208756	0.04974380	-0.64774506	-0.48357519	0.15349386	-0.42227658	0.68945158	0.03170407	-0.53835144	-0.21324707	0.17616875	-0.70982743	-0.12071610	-0.33686187	-0.78333984	-0.02614190	-0.11257659
5708	57.07000000	-0.93062956	-0.06987031	0.10470582	-0.72103995	0.03536908	-0.59479414	-0.53226965	-0.59793512	0.04963753	-0.64277792	-0.48781136	0.15360370	-0.45305310	0.66783096	0.03661271	-0.53962638	-0.21326722	0.18118558	-0.71166223	-0.12461979	-0.33313281	-0.77582991	-0.02883518	-0.14983057
5709	57.08000000	-0.93035055	-0.06889958	0.10378168	-0.72226915	0.03537424	-0.59572885	-0.53015976	-0.60239618	0.05135349	-0.63721673	-0.49389952	0.15442666	-0.48419217	0.64255573	0.04120409	-0.53951085	-0.21572381	0.18626135	-0.71437202	-0.12760566	-0.32995474	-0.76776556	-0.03679655	-0.18934081
5710	57.09000000	-0.93044260	-0.06755497	0.10270205	-0.72509334	0.03535813	-0.59680546	-0.52735837	-0.60626736	0.05368958	-0.63193647	-0.50090526	0.15583114	-0.51465566	0.61513735	0.04657762	-0.53802238	-0.21769339	0.19056016	-0.71686454	-0.12972932	-0.32772998	-0.75919722	-0.04748300	-0.22929876
5711	57.10000000	-0.93121726	-0.06879103	0.10277020	-0.72497044	0.03455440	-0.59758517	-0.52318922	-0.61064433	0.05510599	-0.62785592	-0.50750828	0.15755492	-0.54325568	0.58737333	0.05424584	-0.53548967	-0.21574640	0.19342912	-0.71800793	-0.13113987	-0.32659444	-0.75002326	-0.05760566	-0.26744075
5712	57.11000000	-0.93225845	-0.07203957	0.10392605	-0.72177929	0.03340373	-0.59826655	-0.51789170	-0.61569390	0.05471296	-0.62468055	-0.51283814	0.15953744	-0.57006077	0.55896090	0.06363992	-0.53272234	-0.20963527	0.19561046	-0.71788423	-0.13197093	-0.32597894	-0.73954133	-0.06560540	-0.30332252
5713	57.12000000	-0.93259038	-0.07402164	0.10506026	-0.71880105	0.03327546	-0.59953850	-0.51240982	-0.62086787	0.05212145	-0.62118233	-0.51637119	0.16187311	-0.59610626	0.52798154	0.07258951	-0.53089971	-0.20156132	0.19891962	-0.71750968	-0.13234434	-0.32477179	-0.72658702	-0.07125523	-0.33790029
5714	57.13000000	-0.93174102	-0.07276989	0.10536305	-0.71826183	0.03487244	-0.60168173	-0.50750975	-0.62563846	0.04736925	-0.61669254	-0.51825382	0.16440496	-0.62193399	0.49384206	0.07982376	-0.53053461	-0.19300191	0.20427979	-0.71756046	-0.13258740	-0.32218097	-0.71036573	-0.07514255	-0.37203181
5715	57.14000000	-0.93077807	-0.07042161	0.10499494	-0.71899258	0.03684610	-0.60372658	-0.50337533	-0.62959318	0.04172413	-0.61227590	-0.52059677	0.16621718	-0.64654544	0.46001095	0.08686699	-0.53013128	-0.18309605	0.20988082	-0.71763095	-0.13363865	-0.31840589	-0.69121707	-0.08017294	-0.40617523
5716	57.15000000	-0.93092371	-0.06973212	0.10428911	-0.71930078	0.03758767	-0.60452476	-0.50004108	-0.63239791	0.03663497	-0.60919770	-0.52568007	0.16631869	-0.66867799	0.43041698	0.09560754	-0.52799772	-0.17064094	0.21351124	-0.71718370	-0.13643703	-0.31382456	-0.66974188	-0.08944848	-0.44056942
5717	57.16000000	-0.93145290	-0.07134983	0.10347727	-0.71905361	0.03727002	-0.60371353	-0.49691881	-0.63457242	0.03285720	-0.60692958	-0.53288230	0.16469180	-0.68737861	0.40463988	0.10564792	-0.52506282	-0.15578818	0.21451592	-0.71670145	-0.14023597	-0.30874440	-0.64731133	-0.10259891	-0.47327792
5718	57.17000000	-0.93014270	-0.07430132	0.10271298	-0.71931858	0.03743712	-0.60153498	-0.49294124	-0.63729355	0.03061220	-0.60356317	-0.53934929	0.16206832	-0.70193296	0.37891300	0.11483164	-0.52427190	-0.13973223	0.21343801	-0.71745188	-0.14299188	-0.30341829	-0.62588925	-0.11658175	-0.50069082
5719	57.18000000	-0.92625036	-0.07770090	0.10207082	-0.72077045	0.03900840	-0.59828954	-0.48743899	-0.64145415	0.02979588	-0.59816937	-0.54322580	0.15936953	-0.71209881	0.35136484	0.12186280	-0.52717084	-0.12395717	0.21110233	-0.72017860	-0.14330332	-0.29777615	-0.60692732	-0.12937259	-0.52066430
